<svg width="217px" height="65px" viewBox="0 0 217 65" version="1.1" xmlns="http://www.w3.org/2000/svg" xmlns:xlink="http://www.w3.org/1999/xlink">
    <title>logo</title>
    <defs>
        <path d="M48.8809066,19.8301585 C43.6245517,14.5436564 38.3467058,9.27894388 33.0613977,4.02139505 C29.4159768,0.395077304 23.3907195,0.422538102 19.7569396,4.05094525 C18.0770552,5.7287403 16.3891116,7.39787923 14.7089286,9.07656974 C11.1897677,12.5918503 7.67329312,16.1104143 4.15592311,19.6277843 C0.32961912,23.4540883 0.329022146,29.3903964 4.158311,33.2143125 C9.32900014,38.3799274 14.5032711,43.5413634 19.6736618,48.7078737 C23.2632656,52.2938957 28.9309355,52.517164 32.7026164,49.1329191 C34.3592188,47.6467527 35.885084,46.0158201 37.461692,44.441003 C41.2274032,40.6824556 44.9895325,36.9224157 48.7465875,33.1564061 C50.5954155,31.3028022 51.5111735,29.0519122 51.5544541,26.4401516 C51.5243069,23.8883868 50.6834692,21.6431681 48.8809066,19.8301585" id="path-1"></path>
        <filter x="-6.0%" y="-6.0%" width="111.9%" height="111.9%" filterUnits="objectBoundingBox" id="filter-2">
            <feOffset dx="0" dy="0" in="SourceAlpha" result="shadowOffsetOuter1"></feOffset>
            <feGaussianBlur stdDeviation="1" in="shadowOffsetOuter1" result="shadowBlurOuter1"></feGaussianBlur>
            <feColorMatrix values="0 0 0 0 0.215686275   0 0 0 0 0.207843137   0 0 0 0 0.211764706  0 0 0 1 0" type="matrix" in="shadowBlurOuter1"></feColorMatrix>
        </filter>
    </defs>
    <g id="Branding" stroke="none" stroke-width="1" fill="none" fill-rule="evenodd">
        <g id="Branding/logo">
            <g id="Fill-2">
                <use fill="black" fill-opacity="1" filter="url(#filter-2)" xlink:href="#path-1"></use>
                <use fill="#FFFFFF" fill-rule="evenodd" xlink:href="#path-1"></use>
            </g>
            <path d="M190.850187,53.4090131 C191.631625,53.4090131 192.315757,53.5212442 192.901986,53.7457063 C193.488214,53.9701685 193.980121,54.2883556 194.378302,54.7008645 C194.776185,55.1136719 195.076463,55.6058769 195.279434,56.1777779 C195.482107,56.7496788 195.583592,57.3827696 195.583592,58.0773487 C195.583592,58.9605715 195.409575,59.7820076 195.062434,60.5419553 C194.714995,61.301903 194.248162,61.963947 193.661934,62.5286843 C193.075705,63.0931231 192.395155,63.5274216 191.62088,63.8312813 C190.846306,64.1354395 190.02487,64.2873693 189.156273,64.2873693 C188.461694,64.2873693 187.832185,64.1823019 187.267448,63.9724656 C186.703009,63.7629278 186.217968,63.4548893 185.812623,63.049544 C185.407277,62.6447957 185.096254,62.159456 184.878956,61.5950172 C184.661956,61.0302799 184.553306,60.4079347 184.553306,59.7276829 C184.553306,58.8447586 184.715982,58.0197407 185.041929,57.2523308 C185.367579,56.4852194 185.812623,55.8160117 186.37736,55.2441107 C186.941799,54.6722098 187.607425,54.2235839 188.374835,53.8976362 C189.141647,53.5719869 189.966964,53.4090131 190.850187,53.4090131 Z M178.777793,53.4090131 C179.559232,53.4090131 180.243364,53.5212442 180.829592,53.7457063 C181.415821,53.9701685 181.907727,54.2883556 182.305909,54.7008645 C182.703792,55.1136719 183.00407,55.6058769 183.207041,56.1777779 C183.409713,56.7496788 183.511199,57.3827696 183.511199,58.0773487 C183.511199,58.9605715 183.337181,59.7820076 182.990041,60.5419553 C182.642602,61.301903 182.175768,61.963947 181.58954,62.5286843 C181.003312,63.0931231 180.322761,63.5274216 179.548486,63.8312813 C178.773913,64.1354395 177.952477,64.2873693 177.08388,64.2873693 C176.389301,64.2873693 175.759792,64.1823019 175.195054,63.9724656 C174.630616,63.7629278 174.145574,63.4548893 173.740229,63.049544 C173.334884,62.6447957 173.023861,62.159456 172.806562,61.5950172 C172.589562,61.0302799 172.480913,60.4079347 172.480913,59.7276829 C172.480913,58.8447586 172.643588,58.0197407 172.969536,57.2523308 C173.295185,56.4852194 173.740229,55.8160117 174.304966,55.2441107 C174.869405,54.6722098 175.535031,54.2235839 176.302441,53.8976362 C177.069254,53.5719869 177.89457,53.4090131 178.777793,53.4090131 Z M209.371152,47.6554387 C209.139526,48.5670177 208.900736,49.5550095 208.654783,50.6188169 C208.408531,51.6829228 208.16616,52.7613561 207.92737,53.8541168 C207.688581,54.9471759 207.460537,56.0223259 207.243537,57.0786711 C207.026238,58.1353149 206.831028,59.1197248 206.657308,60.0313039 C206.483589,60.9434799 206.334943,61.7505886 206.211966,62.4526298 C206.088691,63.1546711 206.005711,63.6722475 205.962431,64.0050604 C205.774086,63.9758087 205.560667,63.9614813 205.321878,63.9614813 L203.769447,63.9614813 C203.523196,63.9614813 203.298733,63.9758087 203.096359,64.0050604 C203.168295,63.8023878 203.237544,63.5707619 203.302315,63.3101828 C203.367684,63.0496037 203.428874,62.7893231 203.487079,62.528744 C203.18292,62.962744 202.770412,63.3534634 202.249253,63.7009022 C201.728394,64.048341 201.112615,64.2223589 200.403709,64.2223589 C199.737784,64.2223589 199.166182,64.116993 198.688304,63.9074552 C198.210725,63.6976188 197.820006,63.4009228 197.516146,63.0170686 C197.211988,62.6338114 196.987227,62.1848871 196.843058,61.6708926 C196.697993,61.1571966 196.62576,60.6178307 196.62576,60.0533919 C196.62576,59.1991223 196.752318,58.3705226 197.005733,57.5672942 C197.25885,56.7637674 197.613751,56.0509806 198.069541,55.4286354 C198.525629,54.8062901 199.064696,54.3069215 199.68734,53.9302309 C200.309387,53.5538389 200.989937,53.3654937 201.728394,53.3654937 C202.379692,53.3654937 202.98771,53.5033946 203.552149,53.7783011 C204.116886,54.0532076 204.565213,54.466015 204.898325,55.0158279 C205.274717,53.4383245 205.567831,52.055733 205.777667,50.8686505 C205.987504,49.6821649 206.171969,48.6105968 206.331361,47.6554387 C206.562688,47.6843919 206.816402,47.7094648 207.091607,47.7309558 C207.366215,47.7530439 207.655747,47.7637894 207.959905,47.7637894 C208.263765,47.7637894 208.524643,47.7530439 208.741643,47.7309558 C208.958941,47.7094648 209.168479,47.6843919 209.371152,47.6554387 Z M174.326338,49.1751252 C174.225151,49.3488446 174.123665,49.5261458 174.022478,49.7070289 C173.920993,49.8882105 173.801897,50.1087923 173.664294,50.3693714 C173.526692,50.6299505 173.363718,50.9487345 173.175671,51.3245296 C172.987326,51.7012201 172.7557,52.171337 172.480793,52.7360743 C171.901729,53.9085309 171.330126,55.0666602 170.765687,56.2098652 C170.20095,57.3539656 169.629049,58.5114979 169.050283,59.6842531 C168.688218,60.4224113 168.337198,61.1498239 167.996923,61.8664911 C167.656946,62.5828597 167.313089,63.295945 166.96565,64.0051499 C166.777305,63.9758982 166.607466,63.9615708 166.455536,63.9615708 L165.923632,63.9615708 C165.431428,63.9615708 165.062199,63.9758982 164.816246,64.0051499 C164.743714,63.078945 164.649392,62.0942366 164.533877,61.0519202 C164.417766,60.0099023 164.295088,59.0219106 164.164649,58.0882435 C164.034509,57.1548748 163.911532,56.3223948 163.795719,55.5911018 C163.679608,54.8604058 163.592748,54.3210399 163.53514,53.9736011 C163.274561,54.4225254 162.934286,55.0523329 162.514613,55.8627249 C162.094642,56.6734154 161.646016,57.5527579 161.168437,58.5007524 C160.690858,59.4490454 160.21298,60.4152476 159.735401,61.399359 C159.257822,62.3840674 158.837851,63.2523659 158.476085,64.0051499 C158.229833,63.9758982 157.896722,63.9615708 157.477049,63.9615708 C156.970517,63.9615708 156.572335,63.9758982 156.283102,64.0051499 C156.268177,63.7588982 156.228777,63.3177345 156.163707,62.6804649 C156.098338,62.0437923 156.018642,61.2981719 155.924619,60.4442008 C155.830595,59.5902297 155.721648,58.6637263 155.598969,57.6646905 C155.475993,56.6662517 155.349136,55.6636341 155.219294,54.6574347 C155.088855,53.6515337 154.958715,52.674586 154.828276,51.726293 C154.698136,50.7782985 154.574861,49.9282077 154.459048,49.1751252 C154.719627,49.2043769 154.980206,49.2294498 155.240785,49.2512393 C155.501364,49.2727304 155.812388,49.2834759 156.174452,49.2834759 C156.550844,49.2834759 156.887239,49.2727304 157.184234,49.2512393 C157.480631,49.2294498 157.745091,49.2043769 157.976716,49.1751252 C158.020295,50.1738624 158.081485,51.212597 158.161181,52.2910303 C158.240579,53.3694635 158.323857,54.4007359 158.410716,55.3851458 C158.497576,56.3695557 158.584436,57.2560619 158.671295,58.0449629 C158.758155,58.8338638 158.837851,59.4308377 158.910383,59.8361829 C159.214542,59.2571183 159.536311,58.6311912 159.876287,57.9581032 C160.216562,57.2850151 160.560419,56.6008831 160.907858,55.9060055 C161.255297,55.2114264 161.591692,54.524011 161.917341,53.8434608 C162.243289,53.1629106 162.547447,52.5265365 162.829517,51.9325475 C163.111587,51.3391554 163.361421,50.8036699 163.578719,50.3260908 C163.795719,49.8482132 163.961976,49.464956 164.077789,49.1751252 C164.439555,49.2476575 164.808784,49.2834759 165.185176,49.2834759 C165.416802,49.2834759 165.615892,49.2727304 165.782448,49.2512393 C165.948705,49.2294498 166.111679,49.2043769 166.271071,49.1751252 C166.31465,49.9711898 166.383004,50.8436671 166.477326,51.7916616 C166.571349,52.7399546 166.676118,53.6915309 166.791931,54.6466891 C166.907744,55.6021458 167.027139,56.5325296 167.150115,57.436945 C167.27339,58.3416589 167.392487,59.1487675 167.508598,59.8579725 C167.957224,58.9893755 168.424057,58.0306355 168.909099,56.9808569 C169.393842,55.9316754 169.853511,54.9036864 170.28781,53.8974869 C170.722108,52.891586 171.11641,51.9689629 171.471311,51.1293191 C171.825615,50.2896754 172.097238,49.6386754 172.285583,49.1751252 C172.60377,49.2476575 172.951209,49.2834759 173.327899,49.2834759 C173.50132,49.2834759 173.671458,49.2727304 173.838013,49.2512393 C174.003972,49.2294498 174.166946,49.2043769 174.326338,49.1751252 Z M190.893766,54.27761 C190.473496,54.27761 190.097403,54.3970048 189.764291,54.6360928 C189.43118,54.8745839 189.141647,55.1894876 188.895993,55.5805055 C188.649741,55.9712249 188.439905,56.4094037 188.266185,56.8941465 C188.092466,57.3791878 187.951282,57.8639305 187.842931,58.3489718 C187.734282,58.8340131 187.654586,59.2972648 187.603843,59.7384285 C187.5531,60.1801891 187.528027,60.5455371 187.528027,60.8350695 C187.528027,61.1389292 187.549518,61.4505495 187.593097,61.7687366 C187.636676,62.0869237 187.719656,62.3731726 187.842931,62.6262895 C187.965609,62.879705 188.139328,63.0859594 188.364089,63.245053 C188.588253,63.404445 188.881367,63.4838425 189.243133,63.4838425 C189.663104,63.4838425 190.039198,63.3647462 190.372608,63.1256582 C190.70542,62.8868686 190.994654,62.5719649 191.240906,62.1812455 C191.486859,61.7902276 191.696994,61.3526458 191.870713,60.8673061 C192.044433,60.3825633 192.185617,59.8978205 192.293968,59.4127792 C192.402617,58.927738 192.482015,58.4650832 192.533056,58.0230241 C192.5835,57.5818604 192.608872,57.2162139 192.608872,56.9263831 C192.608872,56.6228219 192.587082,56.3115 192.543802,55.992716 C192.500222,55.6748274 192.416646,55.3888769 192.293968,55.135163 C192.170991,54.8823446 191.997272,54.6757916 191.77281,54.5163996 C191.548348,54.3573061 191.255233,54.27761 190.893766,54.27761 Z M178.821372,54.27761 C178.401103,54.27761 178.025009,54.3970048 177.691898,54.6360928 C177.358786,54.8745839 177.069254,55.1894876 176.823599,55.5805055 C176.577347,55.9712249 176.367511,56.4094037 176.193792,56.8941465 C176.020072,57.3791878 175.878888,57.8639305 175.770537,58.3489718 C175.661888,58.8340131 175.582192,59.2972648 175.531449,59.7384285 C175.480706,60.1801891 175.455634,60.5455371 175.455634,60.8350695 C175.455634,61.1389292 175.477125,61.4505495 175.520704,61.7687366 C175.564283,62.0869237 175.647262,62.3731726 175.770537,62.6262895 C175.893215,62.879705 176.066935,63.0859594 176.291695,63.245053 C176.515859,63.404445 176.808973,63.4838425 177.170739,63.4838425 C177.590711,63.4838425 177.966804,63.3647462 178.300214,63.1256582 C178.633027,62.8868686 178.922261,62.5719649 179.168513,62.1812455 C179.414466,61.7902276 179.624601,61.3526458 179.79832,60.8673061 C179.972039,60.3825633 180.113224,59.8978205 180.221574,59.4127792 C180.330224,58.927738 180.409621,58.4650832 180.460662,58.0230241 C180.511107,57.5818604 180.536478,57.2162139 180.536478,56.9263831 C180.536478,56.6228219 180.514689,56.3115 180.471408,55.992716 C180.427829,55.6748274 180.344253,55.3888769 180.221574,55.135163 C180.098598,54.8823446 179.924878,54.6757916 179.700416,54.5163996 C179.475954,54.3573061 179.18284,54.27761 178.821372,54.27761 Z M202.618482,54.7119682 C202.256716,54.7119682 201.931066,54.8241993 201.641534,55.048363 C201.351703,55.2731237 201.098885,55.5623575 200.881586,55.91696 C200.664586,56.2718609 200.479823,56.669744 200.327893,57.1112062 C200.175963,57.5529669 200.048808,57.9941305 199.947919,58.4355927 C199.846434,58.8773534 199.7742,59.2934442 199.730919,59.6841635 C199.68734,60.0748829 199.66555,60.4008307 199.66555,60.6614098 C199.66555,60.9366147 199.698086,61.1968953 199.763156,61.4428486 C199.828524,61.6891003 199.92613,61.9096821 200.05627,62.1051911 C200.186709,62.3007 200.349683,62.4565102 200.544893,62.5720246 C200.740103,62.688136 200.968446,62.745744 201.228727,62.745744 C201.865698,62.745744 202.382976,62.5144166 202.781157,62.0508664 C203.179339,61.5876147 203.498123,61.0342199 203.736912,60.3900851 C203.975403,59.7456519 204.138377,59.0868912 204.225237,58.4141017 C204.312097,57.7410136 204.355676,57.1870219 204.355676,56.7530219 C204.355676,56.2175363 204.214491,55.7432406 203.932123,55.3307316 C203.649754,54.9182227 203.211874,54.7119682 202.618482,54.7119682 Z M32.5352846,5.79781018 C37.402711,10.6389697 42.2620783,15.4869945 47.1023424,20.3547194 C48.7625267,22.0238583 49.5365033,24.0911788 49.5642626,26.4405695 C49.5242653,28.8460757 48.6813382,30.9190674 46.9787688,32.6255172 C43.5193052,36.0930399 40.0541704,39.5560853 36.5881402,43.0161458 C35.1357028,44.4661953 33.7307248,45.9678831 32.205158,47.3373411 C28.7319641,50.4526492 23.5132186,50.2481857 20.2080728,46.9454278 C15.4472062,42.1884415 10.6824593,37.4353356 5.92069725,32.6789464 C2.39526809,29.1579945 2.39586506,23.6918033 5.91920481,20.1681651 C9.15808652,16.9295818 12.3960728,13.6892077 15.6361484,10.4524154 L20.2844854,5.82497249 C23.6308224,2.48400825 29.1790975,2.45833838 32.5352846,5.79781018 Z M91.6269217,9.50301802 C92.020626,9.66927524 92.3946301,9.88239491 92.7707237,10.0704417 C92.3946301,11.8389768 92.0268942,13.5713949 91.6549795,15.3199314 C91.2490373,15.3990304 90.9553261,15.373062 90.660421,14.975179 C89.028593,12.7741363 86.903366,11.2533454 84.1710166,10.8085999 C80.6390208,10.2331171 77.5792312,11.2575242 75.1191019,13.8877911 C73.3431047,15.786168 72.330637,18.0979492 71.7396329,20.5953894 C70.7426865,24.808234 70.7468653,29.010333 72.1055779,33.1524362 C72.9622354,35.7647938 74.4054197,38.0043413 76.7864499,39.4776728 C79.9423523,41.4294788 83.3110758,41.6682684 86.7869561,40.4364128 C88.5769823,39.8015311 90.2010497,38.8624912 91.5875215,37.554223 C91.8752629,37.2837938 92.0636081,37.4503495 92.3065765,37.5491487 C92.5859602,37.6619768 92.431941,37.8533069 92.3931377,38.0100125 C92.0904719,39.2514197 91.7878062,40.4943193 91.4591721,41.7288612 C91.4135036,41.8998942 91.2591858,42.0951047 91.1018832,42.1762931 C89.1435105,43.1875669 87.0448488,43.7537966 84.8688791,44.0260166 C81.7714802,44.4137512 78.6913935,44.315549 75.6623481,43.4994857 C71.1731047,42.2891212 67.5300717,39.8880923 65.0923289,35.8459823 C63.5748213,33.3297374 62.8677058,30.5681363 62.7898007,27.6480387 C62.7014486,24.3500565 63.1390304,21.1329644 64.4628199,18.0833234 C66.3214981,13.8021253 69.4666549,10.8100923 73.8111322,9.1767718 C79.7704238,6.93632889 85.7332972,7.00348845 91.6269217,9.50301802 Z M195.327909,17.3425684 C197.7955,17.4622616 200.175336,17.8568613 202.373394,19.0143937 C205.463928,20.6423414 207.370961,23.2057472 208.107925,26.5944693 C208.941301,30.4294294 208.596548,34.1673813 206.736975,37.6650512 C204.859492,41.1955546 201.819402,43.1619865 197.916387,43.802838 C195.167621,44.2538517 192.444525,44.0935642 189.816347,43.1148256 C185.628874,41.5540374 183.206951,38.4829054 182.436258,34.1360402 C181.837792,30.7586605 182.152695,27.4362025 183.616475,24.2988063 C185.255467,20.7865106 188.038858,18.6475532 191.806061,17.8219384 C192.959415,17.5691199 194.153064,17.4974831 195.327909,17.3425684 Z M111.573789,19.4901818 C113.518431,20.3811653 114.861622,21.8234542 115.237716,24.0101695 C115.310546,24.43223 115.345171,24.8665285 115.346066,25.2957527 C115.353827,29.9082713 115.349947,34.5195959 115.353827,39.1324129 C115.353827,39.4320938 115.359797,39.736252 115.41442,40.0290677 C115.592617,40.9979563 116.080643,41.4176289 117.071321,41.4770278 C117.31608,41.4910567 117.56263,41.4782217 117.80739,41.4782217 C117.839029,41.5558283 117.847387,41.5674693 117.847685,41.5797073 C117.920459,42.5920044 117.936379,42.6735096 117.086844,42.9992191 L116.550839,43.202505 C115.745143,43.5088101 114.928483,43.8139246 114.090332,43.9449177 C111.943614,44.2783276 110.08613,43.2670539 109.039038,41.3540512 C108.872183,41.049893 108.732491,40.7311089 108.578472,40.4150113 C108.196707,40.8925904 107.859119,41.3886757 107.448102,41.8140195 C105.875375,43.4476385 103.928344,44.13386 101.679544,44.0031227 C100.600513,43.940142 99.5608835,43.7141873 98.590801,43.2219824 C97.0909041,42.4617362 96.0942563,41.2755491 95.608021,39.668197 C95.1546194,38.1703895 95.1567088,36.6507926 95.5053415,35.1386578 C95.9560568,33.1799865 97.3016359,31.9860388 99.0421132,31.1622149 C100.86945,30.2974982 102.829017,29.8434996 104.767988,29.3205505 C105.607333,29.0937004 106.426978,28.7817816 107.237967,28.4629975 C108.183574,28.0898889 108.537281,27.3039728 108.561458,26.3437403 C108.615783,24.1435931 106.794416,21.9464308 104.563524,21.7264459 C101.854159,21.4584047 99.6495341,22.4956468 97.9800967,24.6560952 C97.9192054,24.7342988 97.7929454,24.8250388 97.7165327,24.8101144 C97.6383292,24.7954886 97.5466937,24.6647513 97.5257996,24.5704294 C97.334768,23.7048173 97.1446318,22.8377128 96.9894186,21.964937 C96.9649426,21.8285285 97.0801586,21.6183937 97.1953746,21.5139232 C98.6373649,20.2071475 100.33874,19.3746674 102.201597,18.869926 C105.392423,18.0058063 108.540266,18.0995312 111.573789,19.4901818 Z M173.991764,18.6417327 C175.859695,19.4733173 176.841717,21.057686 177.368845,22.9659129 C177.712404,24.2082155 177.829112,25.4839487 177.832097,26.7641591 C177.845529,32.2267685 177.837768,37.6884824 177.837768,43.1501963 L177.837768,43.5910615 C175.506884,43.2406378 173.218981,43.2337726 170.880933,43.5946433 L170.880933,43.0496062 C170.880933,38.2275498 170.89138,33.4054934 170.874665,28.5843325 C170.870188,27.2521853 170.776761,25.921232 170.345746,24.6422155 C169.992338,23.5951234 169.412378,22.7444356 168.302006,22.3805801 C165.866054,21.583023 163.59039,22.952481 163.203849,25.4735017 C163.09729,26.1671853 163.041174,26.8760917 163.039085,27.5784315 C163.025354,32.7392706 163.032219,37.9013036 163.032219,43.0624411 L163.032219,43.5892706 C160.717453,43.2412348 158.432536,43.2337726 156.087622,43.5934494 L156.087622,43.0925883 C156.087622,38.4147011 156.090309,33.7365154 156.086727,29.0592252 C156.084638,27.7261825 156.027328,26.3964232 155.687948,25.0968111 C155.648548,24.9451798 155.599895,24.7953393 155.550346,24.6478868 C155.101123,23.3229033 154.302372,22.3790876 152.820384,22.2489473 C151.163483,22.1044796 149.846261,22.6698139 149.042435,24.1956791 C148.468146,25.2851564 148.314724,26.4737314 148.253534,27.680514 C148.236819,28.0192967 148.228163,28.3592733 148.228163,28.6983545 L148.226223,35.8718909 L148.226074,43.5922554 C145.903845,43.2355635 143.631166,43.2382499 141.328339,43.5862857 L141.328339,18.2969803 C143.61266,18.6378524 145.884444,18.6736708 148.208463,18.2781757 L148.208463,22.0343352 C148.241893,22.0465732 148.274428,22.0582142 148.307561,22.0692582 C148.385167,21.9603105 148.461878,21.8507657 148.541574,21.7433105 C150.225936,19.4563036 152.433545,18.0775924 155.306482,17.8680546 C158.418805,17.641503 161.001314,19.2554219 162.173771,22.1498497 C162.216455,22.2564095 162.265406,22.3608799 162.337939,22.5283311 C162.443902,22.3835649 162.525687,22.2776021 162.6021,22.1680574 C163.809479,20.4395195 165.276543,19.0094686 167.311925,18.3154865 C169.567889,17.5456887 171.822958,17.676426 173.991764,18.6417327 Z M137.846131,17.7187383 C137.895381,17.7187383 137.94493,17.739347 137.991792,17.7491971 C137.916872,18.7759922 137.815088,19.7878629 137.776285,20.8027184 C137.729422,21.9889055 137.706737,23.1780774 137.738377,24.364563 C137.748526,24.7406565 137.634205,24.9719839 137.379297,25.1555534 C137.301989,25.185999 137.212443,25.1695823 137.147373,25.1480912 C135.916114,24.5388794 134.62486,24.4176937 133.298981,24.7131957 C131.238526,25.1719702 129.86459,26.7455933 129.642217,28.9385768 C129.527598,30.0662604 129.4879,31.2058835 129.482527,32.3386414 C129.467603,35.9449605 129.484318,39.5515781 129.4879,43.1573003 C129.4879,43.2844557 129.477154,43.4128051 129.468498,43.5886139 C127.276037,43.2643825 125.1064,43.2421286 122.918662,43.507138 L122.321527,43.5865245 L122.321527,18.1542439 C124.503317,18.4702669 126.671814,18.508892 128.867943,18.2308042 L129.467603,18.1470802 L129.467603,24.3466538 L129.561029,24.3726221 C129.617145,24.2269605 129.677737,24.0830898 129.728182,23.9350403 C130.307246,22.2432164 131.120325,20.6967556 132.512468,19.5204186 C134.051168,18.2190155 135.864476,17.7157666 137.846131,17.7187383 Z M192.636452,20.9626179 C191.860386,21.7455491 191.370867,22.6816041 191.035069,23.7081007 C190.394218,25.6628916 190.206768,27.6869315 190.158413,29.7291791 C190.104089,32.0167829 190.129162,34.3011034 190.638977,36.549307 C190.953583,37.9342864 191.393851,39.2688215 192.360053,40.3600897 C193.885918,42.0817623 196.363658,42.0898215 197.911014,40.3851626 C198.636338,39.5861131 199.091232,38.6381186 199.432999,37.6301282 C200.272345,35.1526867 200.476808,32.5818187 200.547251,29.9915491 C200.583069,29.9891612 200.618888,29.9840869 200.654408,29.9805051 C200.508149,28.3976289 200.41532,26.8078875 200.197723,25.2342644 C200.006691,23.8573442 199.551499,22.5502699 198.713944,21.4049755 C197.061222,19.1466234 194.024118,19.5642066 192.636452,20.9626179 Z M108.523551,30.2148173 C108.262375,30.3109301 108.005676,30.3965959 107.755842,30.4992754 C106.66935,30.9401406 105.559575,31.3329494 104.50711,31.8436605 C103.281523,32.4382465 102.573811,33.4877265 102.302784,34.8168889 C102.214134,35.2511873 102.161003,35.6953359 102.141602,36.1376935 C102.089963,37.2570195 102.182196,38.3587348 102.703354,39.3789631 C103.08482,40.1239865 103.680003,40.5967898 104.529795,40.6908132 C105.891791,40.8394597 107.062159,40.2126371 107.718531,39.0058545 C108.182082,38.1524803 108.437288,37.2259769 108.471912,36.2723111 C108.542057,34.3014019 108.536386,32.3287018 108.560278,30.3577926 C108.560861,30.3210787 108.542057,30.2846633 108.523551,30.2148173 Z M25.2229517,12.8334457 C18.0270287,13.5856327 12.5291979,19.9613136 13.1822873,27.4766176 C13.7903052,34.4770316 19.7821319,40.0924663 27.2177399,39.7865172 C34.6993149,39.4793741 39.173037,33.578586 39.8759737,28.9800963 L29.3223713,28.9800963 L29.3223713,36.8174677 L24.006916,36.8174677 L24.006916,15.1470179 L24.393158,15.1470179 C25.8948458,15.1470179 27.3977275,15.1586589 28.9000122,15.1389587 C29.2635693,15.133586 29.3447578,15.2526823 29.3426684,15.5965392 C29.3292365,18.1005461 29.3352062,20.6042545 29.3352062,23.1076644 L29.3352062,23.5933026 L39.9088073,23.5933026 C38.7381415,17.3692531 32.742136,12.0478281 25.2229517,12.8334457 Z M212.619316,8.85590182 C215.017957,8.8741956 216.918424,10.8018242 216.915442,13.2121062 C216.90917,15.6250746 214.961245,17.5473304 212.53962,17.5351505 C210.160679,17.5228545 208.22738,15.5653772 208.23393,13.1768847 C208.239617,10.7686922 210.20008,8.84106355 212.619316,8.85590182 Z M212.571558,9.714432 C210.640945,9.72040605 209.084932,11.2808957 209.092072,13.2088228 C209.100752,15.1307802 210.670794,16.6921653 212.592452,16.6891847 C214.514111,16.6829122 216.069825,15.1155574 216.066547,13.1885257 C216.066547,11.2579122 214.50844,9.71145144 212.571558,9.714432 Z M212.777126,10.8998473 C212.953234,10.9031307 213.128445,10.9243232 213.302165,10.953575 C213.912571,11.067 214.267173,11.442795 214.33493,12.0382765 C214.404179,12.6164457 214.123601,13.11074 213.590205,13.3549023 C213.48663,13.4002724 213.379174,13.4384787 213.223364,13.4984746 C213.912571,14.0345571 214.151062,14.7942063 214.639386,15.5123659 C214.240309,15.5123659 213.938837,15.508784 213.640947,15.5153947 C213.45111,15.5183356 213.408426,15.3687937 213.337386,15.2434292 C213.084568,14.8180853 212.845778,14.380205 212.571469,13.9691884 C212.339544,13.6289133 211.98136,13.5877221 211.555419,13.6474195 L211.555419,15.4819202 L210.63787,15.4819202 L210.63787,10.9365612 C210.739057,10.9243232 210.838155,10.8998473 210.933372,10.8998473 C211.54945,10.8971609 212.163736,10.8941761 212.777126,10.8998473 Z M211.567657,11.6744209 L211.567657,12.8603095 C212.02076,12.8603095 212.431777,12.8961279 212.828466,12.848967 C213.182472,12.8065818 213.349923,12.5594347 213.343654,12.2442325 C213.337386,11.9424622 213.176502,11.7341183 212.836824,11.6777043 C212.422822,11.6060674 212.002851,11.603381 211.567657,11.6744209 Z" id="Combined-Shape" fill="#6BC047"></path>
        </g>
    </g>
</svg>